<?xml version="1.0" encoding="UTF-8" standalone="no"?>
<!-- Created with Inkscape (http://www.inkscape.org/) -->

<svg
   xmlns:dc="http://purl.org/dc/elements/1.1/"
   xmlns:cc="http://creativecommons.org/ns#"
   xmlns:rdf="http://www.w3.org/1999/02/22-rdf-syntax-ns#"
   xmlns:svg="http://www.w3.org/2000/svg"
   xmlns="http://www.w3.org/2000/svg"
   xmlns:sodipodi="http://sodipodi.sourceforge.net/DTD/sodipodi-0.dtd"
   xmlns:inkscape="http://www.inkscape.org/namespaces/inkscape"
   id="svg3355"
   version="1.1"
   inkscape:version="0.91 r13725"
   xml:space="preserve"
   width="444.22375"
   height="177.07249"
   viewBox="0 0 444.22375 177.07249"
   sodipodi:docname="2014ChungChoBengio_LSTM_GRU.svg"><metadata
     id="metadata3361"><rdf:RDF><cc:Work
         rdf:about=""><dc:format>image/svg+xml</dc:format><dc:type
           rdf:resource="http://purl.org/dc/dcmitype/StillImage" /><dc:title></dc:title></cc:Work></rdf:RDF></metadata><defs
     id="defs3359"><clipPath
       clipPathUnits="userSpaceOnUse"
       id="clipPath3369"><path
         d="m -0.0569763,-0.0709839 44.7339763,0 0,44.8039839 -44.7339763,0 0,-44.8039839 z"
         id="path3371"
         inkscape:connector-curvature="0" /></clipPath><clipPath
       clipPathUnits="userSpaceOnUse"
       id="clipPath3561"><path
         d="m -0.0809937,-0.0700073 60.7579937,0 0,43.4510073 -60.7579937,0 0,-43.4510073 z"
         id="path3563"
         inkscape:connector-curvature="0" /></clipPath></defs><sodipodi:namedview
     pagecolor="#ffffff"
     bordercolor="#666666"
     borderopacity="1"
     objecttolerance="10"
     gridtolerance="10"
     guidetolerance="10"
     inkscape:pageopacity="0"
     inkscape:pageshadow="2"
     inkscape:window-width="1733"
     inkscape:window-height="1116"
     id="namedview3357"
     showgrid="false"
     inkscape:zoom="5.2721179"
     inkscape:cx="222.11188"
     inkscape:cy="88.536247"
     inkscape:window-x="0"
     inkscape:window-y="0"
     inkscape:window-maximized="0"
     inkscape:current-layer="g3363" /><g
     id="g3363"
     inkscape:groupmode="layer"
     inkscape:label="2014ChungChoBengio_LSTM_GRU"
     transform="matrix(1.25,0,0,-1.25,-167.045,893.9775)"><g
       id="g3365"
       transform="matrix(2.69568,0,0,2.69568,142.476,593.503)"><g
         id="g3367" /><g
         id="g3373"><g
           clip-path="url(#clipPath3369)"
           id="g3375"><g
             id="g3377"><g
               transform="matrix(0,1,1,0,15.215,19.923002)"
               id="g3379"><path
                 d="m 0,0 c 0,2.609 -2.113,4.723 -4.722,4.723 -2.61,0 -4.723,-2.114 -4.723,-4.723 0,-2.61 2.113,-4.723 4.723,-4.723 C -2.113,-4.723 0,-2.61 0,0 Z"
                 style="fill:none;stroke:#000000;stroke-width:0.148;stroke-linecap:butt;stroke-linejoin:miter;stroke-miterlimit:4;stroke-dasharray:none;stroke-opacity:1"
                 id="path3381"
                 inkscape:connector-curvature="0" /></g><g
               transform="matrix(0,1,1,0,28.875,22.459002)"
               id="g3383"><path
                 d="M 0,0 8,0 8,8 0,8 0,0 Z"
                 style="fill:none;stroke:#000000;stroke-width:0.126;stroke-linecap:butt;stroke-linejoin:miter;stroke-miterlimit:4;stroke-dasharray:none;stroke-opacity:1"
                 id="path3385"
                 inkscape:connector-curvature="0" /></g><g
               transform="matrix(1,0,0,-1,20.016,15.201002)"
               id="g3387"><path
                 d="M 0,0 10.398,0"
                 style="fill:none;stroke:#000000;stroke-width:0.37900001;stroke-linecap:butt;stroke-linejoin:miter;stroke-miterlimit:4;stroke-dasharray:none;stroke-opacity:1"
                 id="path3389"
                 inkscape:connector-curvature="0" /></g><g
               transform="matrix(-1,0,0,1,28.898,15.201002)"
               id="g3391"><path
                 d="M 0,0 0.761,-0.758 -1.895,0 0.761,0.758 0,0 Z"
                 style="fill:#000000;fill-opacity:1;fill-rule:evenodd;stroke:#000000;stroke-width:0.19;stroke-linecap:butt;stroke-linejoin:miter;stroke-miterlimit:4;stroke-dasharray:none;stroke-opacity:1"
                 id="path3393"
                 inkscape:connector-curvature="0" /></g><g
               transform="matrix(1,0,0,-1,14.977,35.900002)"
               id="g3395"><path
                 d="M 0,0 0,15.258"
                 style="fill:none;stroke:#000000;stroke-width:0.41100001;stroke-linecap:butt;stroke-linejoin:miter;stroke-miterlimit:4;stroke-dasharray:none;stroke-opacity:1"
                 id="path3397"
                 inkscape:connector-curvature="0" /></g><g
               transform="matrix(0,1,1,0,14.977,22.283002)"
               id="g3399"><path
                 d="M 0,0 0.824,-0.825 -2.055,0 0.824,0.82 0,0 Z"
                 style="fill:#000000;fill-opacity:1;fill-rule:evenodd;stroke:#000000;stroke-width:0.205;stroke-linecap:butt;stroke-linejoin:miter;stroke-miterlimit:4;stroke-dasharray:none;stroke-opacity:1"
                 id="path3401"
                 inkscape:connector-curvature="0" /></g><g
               transform="matrix(1,0,0,-1,4.016,26.400002)"
               id="g3403"><path
                 d="M 0,0 -2.403,-5.66"
                 style="fill:none;stroke:#000000;stroke-width:0.40000001;stroke-linecap:butt;stroke-linejoin:miter;stroke-miterlimit:4;stroke-dasharray:none;stroke-opacity:1"
                 id="path3405"
                 inkscape:connector-curvature="0" /></g><g
               transform="matrix(-1,0,0,1,3.215,26.400002)"
               id="g3407"><path
                 d="m 0,0 c 0,0.441 -0.359,0.801 -0.801,0.801 -0.441,0 -0.8,-0.36 -0.8,-0.801 0,-0.441 0.359,-0.801 0.8,-0.801 C -0.359,-0.801 0,-0.441 0,0 Z"
                 style="fill:#000000;fill-opacity:1;fill-rule:nonzero;stroke:#000000;stroke-width:0.40000001;stroke-linecap:butt;stroke-linejoin:miter;stroke-miterlimit:4;stroke-dasharray:none;stroke-opacity:1"
                 id="path3409"
                 inkscape:connector-curvature="0" /></g><g
               transform="matrix(1,0,0,-1,44.016,15.201002)"
               id="g3411"><path
                 d="M 0,0 -8,0"
                 style="fill:none;stroke:#000000;stroke-width:0.40000001;stroke-linecap:butt;stroke-linejoin:miter;stroke-miterlimit:4;stroke-dasharray:none;stroke-opacity:1"
                 id="path3413"
                 inkscape:connector-curvature="0" /></g><g
               transform="matrix(1,0,0,-1,37.613,15.201002)"
               id="g3415"><path
                 d="M 0,0 0.801,-0.801 -2,0 0.801,0.801 0,0 Z"
                 style="fill:#000000;fill-opacity:1;fill-rule:evenodd;stroke:#000000;stroke-width:0.2;stroke-linecap:butt;stroke-linejoin:miter;stroke-miterlimit:4;stroke-dasharray:none;stroke-opacity:1"
                 id="path3417"
                 inkscape:connector-curvature="0" /></g><text
               transform="matrix(1,0,0,-1,5.369,27.194)"
               style="font-style:italic;font-variant:normal;font-weight:normal;font-stretch:normal;font-size:3px;font-family:Times;-inkscape-font-specification:Times-Italic;writing-mode:lr-tb;fill:#000000;fill-opacity:1;fill-rule:nonzero;stroke:none"
               id="text3419"><tspan
                 x="0"
                 y="0"
                 id="tspan3421">f</tspan></text>
<text
               transform="matrix(1,0,0,-1,6.203,27.194)"
               style="font-style:italic;font-variant:normal;font-weight:normal;font-stretch:normal;font-size:3px;font-family:Times;-inkscape-font-specification:Times-Italic;writing-mode:lr-tb;fill:#000000;fill-opacity:1;fill-rule:nonzero;stroke:none"
               id="text3423"><tspan
                 x="0 1.5 2.6670001 4.1669998 5.4990001"
                 y="0"
                 sodipodi:role="line"
                 id="tspan3425">orget</tspan></text>
<text
               transform="matrix(1,0,0,-1,13.637,12.994)"
               style="font-style:italic;font-variant:normal;font-weight:bold;font-stretch:normal;font-size:6px;font-family:Times;-inkscape-font-specification:Times-BoldItalic;writing-mode:lr-tb;fill:#000000;fill-opacity:1;fill-rule:nonzero;stroke:none"
               id="text3427"><tspan
                 x="0"
                 y="0"
                 id="tspan3429">h</tspan></text>
<g
               transform="matrix(0,1,1,0,0.074,0.060002)"
               id="g3431"><path
                 d="m 0,0 43.141,0 0,40 L 0,40 0,0 Z"
                 style="fill:none;stroke:#000000;stroke-width:0.131;stroke-linecap:butt;stroke-linejoin:miter;stroke-miterlimit:4;stroke-dasharray:none;stroke-opacity:1"
                 id="path3433"
                 inkscape:connector-curvature="0" /></g><g
               transform="matrix(0,1,0.965979,0,33.20746,17.259002)"
               id="g3435"><path
                 d="m 0,0 c 0,1.104 -0.894,2.001 -2,2.001 -1.105,0 -2,-0.897 -2,-2.001 0,-1.104 0.895,-2.002 2,-2.002 1.106,0 2,0.898 2,2.002 z"
                 style="fill:none;stroke:#000000;stroke-width:0.244;stroke-linecap:butt;stroke-linejoin:miter;stroke-miterlimit:4;stroke-dasharray:none;stroke-opacity:1"
                 id="path3437"
                 inkscape:connector-curvature="0" /></g></g><g
             id="g3439"><text
               transform="matrix(0.95123005,0,0,-1,30.5358,13.2603)"
               style="font-variant:normal;font-weight:normal;font-size:6.47940016px;font-family:'Bitstream Vera Sans';-inkscape-font-specification:BitstreamVeraSans-Roman;writing-mode:lr-tb;fill:#000000;fill-opacity:1;fill-rule:nonzero;stroke:none"
               id="text3441"><tspan
                 x="0"
                 y="0"
                 id="tspan3443">+</tspan></text>
<g
               transform="matrix(1,0,0,-1,33.195,17.259002)"
               id="g3445"><path
                 d="M 0,0 0,-4.801"
                 style="fill:none;stroke:#000000;stroke-width:0.40000001;stroke-linecap:butt;stroke-linejoin:miter;stroke-miterlimit:4;stroke-dasharray:none;stroke-opacity:1"
                 id="path3447"
                 inkscape:connector-curvature="0" /></g><g
               transform="matrix(0,-1,-1,0,33.195,20.459002)"
               id="g3449"><path
                 d="M 0,0 0.797,-0.801 -2,0 0.797,0.8 0,0 Z"
                 style="fill:#000000;fill-opacity:1;fill-rule:evenodd;stroke:#000000;stroke-width:0.2;stroke-linecap:butt;stroke-linejoin:miter;stroke-miterlimit:4;stroke-dasharray:none;stroke-opacity:1"
                 id="path3451"
                 inkscape:connector-curvature="0" /></g><g
               transform="matrix(1,0,0,-1,10.477,15.259002)"
               id="g3453"><path
                 d="m 0,0 -6.403,0 0,-10.403"
                 style="fill:none;stroke:#000000;stroke-width:0.40000001;stroke-linecap:butt;stroke-linejoin:miter;stroke-miterlimit:4;stroke-dasharray:none;stroke-opacity:1"
                 id="path3455"
                 inkscape:connector-curvature="0" /></g><g
               transform="matrix(0,-1,-1,0,4.074,24.060002)"
               id="g3457"><path
                 d="M 0,0 0.801,-0.801 -2,0 0.801,0.801 0,0 Z"
                 style="fill:#000000;fill-opacity:1;fill-rule:evenodd;stroke:#000000;stroke-width:0.2;stroke-linecap:butt;stroke-linejoin:miter;stroke-miterlimit:4;stroke-dasharray:none;stroke-opacity:1"
                 id="path3459"
                 inkscape:connector-curvature="0" /></g><g
               transform="matrix(1,0,0,-1,4.074,32.060002)"
               id="g3461"><path
                 d="m 0,0 0,-5.602 8.801,0"
                 style="fill:none;stroke:#000000;stroke-width:0.40000001;stroke-linecap:butt;stroke-linejoin:miter;stroke-miterlimit:4;stroke-dasharray:none;stroke-opacity:1"
                 id="path3463"
                 inkscape:connector-curvature="0" /></g><g
               transform="matrix(-1,0,0,1,11.273,37.662002)"
               id="g3465"><path
                 d="M 0,0 0.796,-0.801 -2,0 0.796,0.797 0,0 Z"
                 style="fill:#000000;fill-opacity:1;fill-rule:evenodd;stroke:#000000;stroke-width:0.2;stroke-linecap:butt;stroke-linejoin:miter;stroke-miterlimit:4;stroke-dasharray:none;stroke-opacity:1"
                 id="path3467"
                 inkscape:connector-curvature="0" /></g><g
               transform="matrix(0,1,0.965979,0,15.047055,39.662002)"
               id="g3469"><path
                 d="m 0,0 c 0,1.104 -0.899,2.002 -2,2.002 -1.106,0 -2,-0.898 -2,-2.002 0,-1.104 0.894,-2.002 2,-2.002 1.101,0 2,0.898 2,2.002 z"
                 style="fill:none;stroke:#000000;stroke-width:0.244;stroke-linecap:butt;stroke-linejoin:miter;stroke-miterlimit:4;stroke-dasharray:none;stroke-opacity:1"
                 id="path3471"
                 inkscape:connector-curvature="0" /></g><text
               transform="matrix(0.95123005,0,0,-1,12.3758,35.6603)"
               style="font-variant:normal;font-weight:normal;font-size:6.47940016px;font-family:'Bitstream Vera Sans';-inkscape-font-specification:BitstreamVeraSans-Roman;writing-mode:lr-tb;fill:#000000;fill-opacity:1;fill-rule:nonzero;stroke:none"
               id="text3473"><tspan
                 x="0"
                 y="0"
                 id="tspan3475">+</tspan></text>
<g
               transform="matrix(0,1,0.965979,0,15.207407,6.060002)"
               id="g3477"><path
                 d="m 0,0 c 0,1.104 -0.894,2.001 -2,2.001 -1.105,0 -2,-0.897 -2,-2.001 0,-1.104 0.895,-2.002 2,-2.002 1.106,0 2,0.898 2,2.002 z"
                 style="fill:none;stroke:#000000;stroke-width:0.244;stroke-linecap:butt;stroke-linejoin:miter;stroke-miterlimit:4;stroke-dasharray:none;stroke-opacity:1"
                 id="path3479"
                 inkscape:connector-curvature="0" /></g><g
               transform="matrix(1,0,0,-1,13.383,3.099002)"
               id="g3481"><path
                 d="m 0,0 c 0,0 0.793,0.222 1.148,0 0.496,-0.317 0.645,-1.446 1.145,-1.762 0.351,-0.223 1.144,0 1.144,0"
                 style="fill:none;stroke:#000000;stroke-width:0.28400001;stroke-linecap:butt;stroke-linejoin:miter;stroke-miterlimit:4;stroke-dasharray:none;stroke-opacity:1"
                 id="path3483"
                 inkscape:connector-curvature="0" /></g><g
               transform="matrix(1,0,0,-1,15.273,10.459002)"
               id="g3485"><path
                 d="M 0,0 0,4"
                 style="fill:none;stroke:#000000;stroke-width:0.40000001;stroke-linecap:butt;stroke-linejoin:miter;stroke-miterlimit:4;stroke-dasharray:none;stroke-opacity:1"
                 id="path3487"
                 inkscape:connector-curvature="0" /></g><g
               transform="matrix(0,1,1,0,15.273,8.060002)"
               id="g3489"><path
                 d="M 0,0 0.801,-0.796 -2,0 0.801,0.801 0,0 Z"
                 style="fill:#000000;fill-opacity:1;fill-rule:evenodd;stroke:#000000;stroke-width:0.2;stroke-linecap:butt;stroke-linejoin:miter;stroke-miterlimit:4;stroke-dasharray:none;stroke-opacity:1"
                 id="path3491"
                 inkscape:connector-curvature="0" /></g><g
               transform="matrix(1,0,0,-1,23.184,4.029002)"
               id="g3493"><path
                 d="M 0,0 5.66,-2.402"
                 style="fill:none;stroke:#000000;stroke-width:0.40000001;stroke-linecap:butt;stroke-linejoin:miter;stroke-miterlimit:4;stroke-dasharray:none;stroke-opacity:1"
                 id="path3495"
                 inkscape:connector-curvature="0" /></g><g
               transform="matrix(0,1,1,0,23.184,4.830002)"
               id="g3497"><path
                 d="m 0,0 c 0,0.441 -0.36,0.8 -0.801,0.8 -0.442,0 -0.797,-0.359 -0.797,-0.8 0,-0.442 0.355,-0.797 0.797,-0.797 C -0.36,-0.797 0,-0.442 0,0 Z"
                 style="fill:#000000;fill-opacity:1;fill-rule:nonzero;stroke:#000000;stroke-width:0.40000001;stroke-linecap:butt;stroke-linejoin:miter;stroke-miterlimit:4;stroke-dasharray:none;stroke-opacity:1"
                 id="path3499"
                 inkscape:connector-curvature="0" /></g><text
               transform="matrix(1,0,0,-1,22.472,8.169)"
               style="font-style:italic;font-variant:normal;font-weight:normal;font-stretch:normal;font-size:3px;font-family:Times;-inkscape-font-specification:Times-Italic;writing-mode:lr-tb;fill:#000000;fill-opacity:1;fill-rule:nonzero;stroke:none"
               id="text3501"><tspan
                 x="0"
                 y="0"
                 id="tspan3503">o</tspan></text>
<text
               transform="matrix(1,0,0,-1,23.972,8.169)"
               style="font-style:italic;font-variant:normal;font-weight:normal;font-stretch:normal;font-size:3px;font-family:Times;-inkscape-font-specification:Times-Italic;writing-mode:lr-tb;fill:#000000;fill-opacity:1;fill-rule:nonzero;stroke:none"
               id="text3505"><tspan
                 x="0 1.5 2.3340001 3.8340001 5.3340001"
                 y="0"
                 sodipodi:role="line"
                 id="tspan3507">utput</tspan></text>
<g
               transform="matrix(1,0,0,-1,17.676,4.060002)"
               id="g3509"><path
                 d="M 0,0 4,0"
                 style="fill:none;stroke:#000000;stroke-width:0.40000001;stroke-linecap:butt;stroke-linejoin:miter;stroke-miterlimit:4;stroke-dasharray:none;stroke-opacity:1"
                 id="path3511"
                 inkscape:connector-curvature="0" /></g><g
               transform="matrix(-1,0,0,1,20.074,4.060002)"
               id="g3513"><path
                 d="M 0,0 0.801,-0.801 -2,0 0.801,0.801 0,0 Z"
                 style="fill:#000000;fill-opacity:1;fill-rule:evenodd;stroke:#000000;stroke-width:0.2;stroke-linecap:butt;stroke-linejoin:miter;stroke-miterlimit:4;stroke-dasharray:none;stroke-opacity:1"
                 id="path3515"
                 inkscape:connector-curvature="0" /></g><g
               transform="matrix(1,0,0,-1,28.875,4.060002)"
               id="g3517"><path
                 d="M 0,0 15.199,0"
                 style="fill:none;stroke:#000000;stroke-width:0.40000001;stroke-linecap:butt;stroke-linejoin:miter;stroke-miterlimit:4;stroke-dasharray:none;stroke-opacity:1"
                 id="path3519"
                 inkscape:connector-curvature="0" /></g><g
               transform="matrix(-1,0,0,1,42.477,4.060002)"
               id="g3521"><path
                 d="M 0,0 0.801,-0.801 -2,0 0.801,0.801 0,0 Z"
                 style="fill:#000000;fill-opacity:1;fill-rule:evenodd;stroke:#000000;stroke-width:0.2;stroke-linecap:butt;stroke-linejoin:miter;stroke-miterlimit:4;stroke-dasharray:none;stroke-opacity:1"
                 id="path3523"
                 inkscape:connector-curvature="0" /></g><g
               transform="matrix(1,0,0,-1,28.047,37.630002)"
               id="g3525"><path
                 d="M 0,0 -5.66,-2.399"
                 style="fill:none;stroke:#000000;stroke-width:0.40000001;stroke-linecap:butt;stroke-linejoin:miter;stroke-miterlimit:4;stroke-dasharray:none;stroke-opacity:1"
                 id="path3527"
                 inkscape:connector-curvature="0" /></g><g
               transform="matrix(0,1,-1,0,28.047,38.431002)"
               id="g3529"><path
                 d="m 0,0 c 0,0.445 -0.359,0.801 -0.801,0.801 -0.441,0 -0.8,-0.356 -0.8,-0.801 0,-0.441 0.359,-0.797 0.8,-0.797 C -0.359,-0.797 0,-0.441 0,0 Z"
                 style="fill:#000000;fill-opacity:1;fill-rule:nonzero;stroke:#000000;stroke-width:0.40000001;stroke-linecap:butt;stroke-linejoin:miter;stroke-miterlimit:4;stroke-dasharray:none;stroke-opacity:1"
                 id="path3531"
                 inkscape:connector-curvature="0" /></g><text
               transform="matrix(1,0,0,-1,16.081,41.118)"
               style="font-style:italic;font-variant:normal;font-weight:normal;font-stretch:normal;font-size:3px;font-family:Times;-inkscape-font-specification:Times-Italic;writing-mode:lr-tb;fill:#000000;fill-opacity:1;fill-rule:nonzero;stroke:none"
               id="text3533"><tspan
                 x="0"
                 y="0"
                 id="tspan3535">i</tspan></text>
<text
               transform="matrix(1,0,0,-1,16.915,41.118)"
               style="font-style:italic;font-variant:normal;font-weight:normal;font-stretch:normal;font-size:3px;font-family:Times;-inkscape-font-specification:Times-Italic;writing-mode:lr-tb;fill:#000000;fill-opacity:1;fill-rule:nonzero;stroke:none"
               id="text3537"><tspan
                 x="0 1.5 3 4.5"
                 y="0"
                 sodipodi:role="line"
                 id="tspan3539">nput</tspan></text>
<g
               transform="matrix(1,0,0,-1,32.875,30.459002)"
               id="g3541"><path
                 d="m 0,0 0,-7.203 -4,0"
                 style="fill:none;stroke:#000000;stroke-width:0.40000001;stroke-linecap:butt;stroke-linejoin:miter;stroke-miterlimit:4;stroke-dasharray:none;stroke-opacity:1"
                 id="path3543"
                 inkscape:connector-curvature="0" /></g><g
               transform="matrix(1,0,0,-1,30.477,37.662002)"
               id="g3545"><path
                 d="M 0,0 0.796,-0.797 -2,0 0.796,0.801 0,0 Z"
                 style="fill:#000000;fill-opacity:1;fill-rule:evenodd;stroke:#000000;stroke-width:0.2;stroke-linecap:butt;stroke-linejoin:miter;stroke-miterlimit:4;stroke-dasharray:none;stroke-opacity:1"
                 id="path3547"
                 inkscape:connector-curvature="0" /></g><g
               transform="matrix(1,0,0,-1,22.477,37.662002)"
               id="g3549"><path
                 d="M 0,0 -5.602,0"
                 style="fill:none;stroke:#000000;stroke-width:0.40000001;stroke-linecap:butt;stroke-linejoin:miter;stroke-miterlimit:4;stroke-dasharray:none;stroke-opacity:1"
                 id="path3551"
                 inkscape:connector-curvature="0" /></g><g
               transform="matrix(1,0,0,-1,18.477,37.662002)"
               id="g3553"><path
                 d="M 0,0 0.796,-0.797 -2,0 0.796,0.801 0,0 Z"
                 style="fill:#000000;fill-opacity:1;fill-rule:evenodd;stroke:#000000;stroke-width:0.2;stroke-linecap:butt;stroke-linejoin:miter;stroke-miterlimit:4;stroke-dasharray:none;stroke-opacity:1"
                 id="path3555"
                 inkscape:connector-curvature="0" /></g></g></g></g></g><g
       id="g3557"
       transform="matrix(2.39458,0,0,2.39458,315.577,593.503)"><g
         id="g3559" /><g
         id="g3565"><g
           clip-path="url(#clipPath3561)"
           id="g3567"><g
             id="g3569"><g
               transform="matrix(0,1,1,0,15.215,19.947999)"
               id="g3571"><path
                 d="m 0,0 c 0,2.609 -2.113,4.723 -4.722,4.723 -2.61,0 -4.723,-2.114 -4.723,-4.723 0,-2.61 2.113,-4.723 4.723,-4.723 C -2.113,-4.723 0,-2.61 0,0 Z"
                 style="fill:none;stroke:#000000;stroke-width:0.148;stroke-linecap:butt;stroke-linejoin:miter;stroke-miterlimit:4;stroke-dasharray:none;stroke-opacity:1"
                 id="path3573"
                 inkscape:connector-curvature="0" /></g><g
               transform="matrix(0,1,1,0,42.734,11.225999)"
               id="g3575"><path
                 d="M 0,0 8,0 8,8 0,8 0,0 Z"
                 style="fill:none;stroke:#000000;stroke-width:0.126;stroke-linecap:butt;stroke-linejoin:miter;stroke-miterlimit:4;stroke-dasharray:none;stroke-opacity:1"
                 id="path3577"
                 inkscape:connector-curvature="0" /></g><g
               transform="matrix(1,0,0,-1,20.016,15.225999)"
               id="g3579"><path
                 d="M 0,0 4.058,0"
                 style="fill:none;stroke:#000000;stroke-width:0.40000001;stroke-linecap:butt;stroke-linejoin:miter;stroke-miterlimit:4;stroke-dasharray:none;stroke-opacity:1"
                 id="path3581"
                 inkscape:connector-curvature="0" /></g><g
               transform="matrix(-1,0,0,1,22.477,15.225999)"
               id="g3583"><path
                 d="M 0,0 0.801,-0.801 -2,0 0.801,0.801 0,0 Z"
                 style="fill:#000000;fill-opacity:1;fill-rule:evenodd;stroke:#000000;stroke-width:0.2;stroke-linecap:butt;stroke-linejoin:miter;stroke-miterlimit:4;stroke-dasharray:none;stroke-opacity:1"
                 id="path3585"
                 inkscape:connector-curvature="0" /></g><g
               transform="matrix(1,0,0,-1,33.934,15.225999)"
               id="g3587"><path
                 d="M 0,0 8,0"
                 style="fill:none;stroke:#000000;stroke-width:0.40000001;stroke-linecap:butt;stroke-linejoin:miter;stroke-miterlimit:4;stroke-dasharray:none;stroke-opacity:1"
                 id="path3589"
                 inkscape:connector-curvature="0" /></g><g
               transform="matrix(-1,0,0,1,40.336,15.225999)"
               id="g3591"><path
                 d="M 0,0 0.801,-0.801 -2,0 0.801,0.801 0,0 Z"
                 style="fill:#000000;fill-opacity:1;fill-rule:evenodd;stroke:#000000;stroke-width:0.2;stroke-linecap:butt;stroke-linejoin:miter;stroke-miterlimit:4;stroke-dasharray:none;stroke-opacity:1"
                 id="path3593"
                 inkscape:connector-curvature="0" /></g><g
               transform="matrix(1,0,0,-1,25.934,15.225999)"
               id="g3595"><path
                 d="M 0,0 6.929,-4"
                 style="fill:none;stroke:#000000;stroke-width:0.40000001;stroke-linecap:butt;stroke-linejoin:miter;stroke-miterlimit:4;stroke-dasharray:none;stroke-opacity:1"
                 id="path3597"
                 inkscape:connector-curvature="0" /></g><g
               transform="matrix(0,1,1,0,25.934,16.026999)"
               id="g3599"><path
                 d="m 0,0 c 0,0.441 -0.36,0.8 -0.801,0.8 -0.442,0 -0.801,-0.359 -0.801,-0.8 0,-0.442 0.359,-0.797 0.801,-0.797 C -0.36,-0.797 0,-0.442 0,0 Z"
                 style="fill:#000000;fill-opacity:1;fill-rule:nonzero;stroke:#000000;stroke-width:0.40000001;stroke-linecap:butt;stroke-linejoin:miter;stroke-miterlimit:4;stroke-dasharray:none;stroke-opacity:1"
                 id="path3601"
                 inkscape:connector-curvature="0" /></g><g
               transform="matrix(1,0,0,-1,15.215,31.526999)"
               id="g3603"><path
                 d="M 0,0 0,10.704"
                 style="fill:none;stroke:#000000;stroke-width:0.38699999;stroke-linecap:butt;stroke-linejoin:miter;stroke-miterlimit:4;stroke-dasharray:none;stroke-opacity:1"
                 id="path3605"
                 inkscape:connector-curvature="0" /></g><g
               transform="matrix(0,1,1,0,15.215,22.373999)"
               id="g3607"><path
                 d="M 0,0 0.774,-0.774 -1.937,0 0.774,0.773 0,0 Z"
                 style="fill:#000000;fill-opacity:1;fill-rule:evenodd;stroke:#000000;stroke-width:0.19400001;stroke-linecap:butt;stroke-linejoin:miter;stroke-miterlimit:4;stroke-dasharray:none;stroke-opacity:1"
                 id="path3609"
                 inkscape:connector-curvature="0" /></g><g
               transform="matrix(1,0,0,-1,15.215,31.225999)"
               id="g3611"><path
                 d="M 0,0 -2.399,-8"
                 style="fill:none;stroke:#000000;stroke-width:0.333;stroke-linecap:butt;stroke-linejoin:miter;stroke-miterlimit:4;stroke-dasharray:none;stroke-opacity:1"
                 id="path3613"
                 inkscape:connector-curvature="0" /></g><g
               transform="matrix(-1,0,0,1,14.414,31.225999)"
               id="g3615"><path
                 d="m 0,0 c 0,0.441 -0.359,0.801 -0.801,0.801 -0.441,0 -0.801,-0.36 -0.801,-0.801 0,-0.442 0.36,-0.801 0.801,-0.801 C -0.359,-0.801 0,-0.442 0,0 Z"
                 style="fill:#000000;fill-opacity:1;fill-rule:nonzero;stroke:#000000;stroke-width:0.40000001;stroke-linecap:butt;stroke-linejoin:miter;stroke-miterlimit:4;stroke-dasharray:none;stroke-opacity:1"
                 id="path3617"
                 inkscape:connector-curvature="0" /></g><g
               transform="matrix(1,0,0,-1,46.477,19.225999)"
               id="g3619"><path
                 d="m 0,0 0,-20 -28.864,0"
                 style="fill:none;stroke:#000000;stroke-width:0.40000001;stroke-linecap:butt;stroke-linejoin:miter;stroke-miterlimit:4;stroke-dasharray:none;stroke-opacity:1"
                 id="path3621"
                 inkscape:connector-curvature="0" /></g><g
               transform="matrix(1,0,0,-1,19.215,39.225999)"
               id="g3623"><path
                 d="M 0,0 0.801,-0.801 -2,0 0.801,0.801 0,0 Z"
                 style="fill:#000000;fill-opacity:1;fill-rule:evenodd;stroke:#000000;stroke-width:0.2;stroke-linecap:butt;stroke-linejoin:miter;stroke-miterlimit:4;stroke-dasharray:none;stroke-opacity:1"
                 id="path3625"
                 inkscape:connector-curvature="0" /></g><g
               transform="matrix(1,0,0,-1,10.414,15.225999)"
               id="g3627"><path
                 d="m 0,0 -7.199,0 0,-24 8.801,0"
                 style="fill:none;stroke:#000000;stroke-width:0.38299999;stroke-linecap:butt;stroke-linejoin:miter;stroke-miterlimit:4;stroke-dasharray:none;stroke-opacity:1"
                 id="path3629"
                 inkscape:connector-curvature="0" /></g><g
               transform="matrix(-1,0,0,1,10.484,39.225999)"
               id="g3631"><path
                 d="M 0,0 0.765,-0.766 -1.914,0 0.765,0.765 0,0 Z"
                 style="fill:#000000;fill-opacity:1;fill-rule:evenodd;stroke:#000000;stroke-width:0.191;stroke-linecap:butt;stroke-linejoin:miter;stroke-miterlimit:4;stroke-dasharray:none;stroke-opacity:1"
                 id="path3633"
                 inkscape:connector-curvature="0" /></g><g
               transform="matrix(1,0,0,-1,59.535,15.225999)"
               id="g3635"><path
                 d="M 0,0 -8,0"
                 style="fill:none;stroke:#000000;stroke-width:0.40000001;stroke-linecap:butt;stroke-linejoin:miter;stroke-miterlimit:4;stroke-dasharray:none;stroke-opacity:1"
                 id="path3637"
                 inkscape:connector-curvature="0" /></g><g
               transform="matrix(1,0,0,-1,53.137,15.225999)"
               id="g3639"><path
                 d="M 0,0 0.797,-0.801 -2,0 0.797,0.801 0,0 Z"
                 style="fill:#000000;fill-opacity:1;fill-rule:evenodd;stroke:#000000;stroke-width:0.2;stroke-linecap:butt;stroke-linejoin:miter;stroke-miterlimit:4;stroke-dasharray:none;stroke-opacity:1"
                 id="path3641"
                 inkscape:connector-curvature="0" /></g><text
               transform="matrix(1,0,0,-1,13.49,13.91)"
               style="font-style:italic;font-variant:normal;font-weight:bold;font-stretch:normal;font-size:6.40100002px;font-family:Times;-inkscape-font-specification:Times-BoldItalic;writing-mode:lr-tb;fill:#000000;fill-opacity:1;fill-rule:nonzero;stroke:none"
               id="text3643"><tspan
                 x="0"
                 y="0"
                 id="tspan3645">h</tspan></text>
<g
               transform="matrix(0,1,1,0,0.074,0.084999)"
               id="g3647"><path
                 d="m 0,0 43.141,0 0,56 L 0,56 0,0 Z"
                 style="fill:none;stroke:#000000;stroke-width:0.155;stroke-linecap:butt;stroke-linejoin:miter;stroke-miterlimit:4;stroke-dasharray:none;stroke-opacity:1"
                 id="path3649"
                 inkscape:connector-curvature="0" /></g><g
               transform="matrix(1,0,0,-1,15.273,10.483999)"
               id="g3651"><path
                 d="m 0,0 0,4.797 44.801,0"
                 style="fill:none;stroke:#000000;stroke-width:0.40000001;stroke-linecap:butt;stroke-linejoin:miter;stroke-miterlimit:4;stroke-dasharray:none;stroke-opacity:1"
                 id="path3653"
                 inkscape:connector-curvature="0" /></g><g
               transform="matrix(-1,0,0,1,58.477,5.686999)"
               id="g3655"><path
                 d="M 0,0 0.801,-0.801 -2,0 0.801,0.797 0,0 Z"
                 style="fill:#000000;fill-opacity:1;fill-rule:evenodd;stroke:#000000;stroke-width:0.2;stroke-linecap:butt;stroke-linejoin:miter;stroke-miterlimit:4;stroke-dasharray:none;stroke-opacity:1"
                 id="path3657"
                 inkscape:connector-curvature="0" /></g></g></g></g></g><text
       transform="matrix(1,0,0,-1,267.722,632.567)"
       style="font-style:italic;font-variant:normal;font-weight:bold;font-stretch:normal;font-size:15.32800007px;font-family:Times;-inkscape-font-specification:Times-BoldItalic;writing-mode:lr-tb;fill:#000000;fill-opacity:1;fill-rule:nonzero;stroke:none"
       id="text3659"><tspan
         x="0"
         y="0"
         id="tspan3661">x</tspan></text>
<text
       transform="matrix(1,0,0,-1,268.085,600.062)"
       style="font-style:italic;font-variant:normal;font-weight:bold;font-stretch:normal;font-size:15.32800007px;font-family:Times;-inkscape-font-specification:Times-BoldItalic;writing-mode:lr-tb;fill:#000000;fill-opacity:1;fill-rule:nonzero;stroke:none"
       id="text3663"><tspan
         x="0"
         y="0"
         id="tspan3665">y</tspan><tspan
         x="196.94701"
         y="-26.697001"
         id="tspan3667">x</tspan><tspan
         x="197.31"
         y="1.869"
         id="tspan3669">y</tspan></text>
<text
       transform="matrix(1,0,0,-1,375.046,619.268)"
       style="font-style:italic;font-variant:normal;font-weight:normal;font-stretch:normal;font-size:10px;font-family:Times;-inkscape-font-specification:Times-Italic;writing-mode:lr-tb;fill:#000000;fill-opacity:1;fill-rule:nonzero;stroke:none"
       id="text3671"><tspan
         x="0"
         y="0"
         id="tspan3673">r</tspan></text>
<text
       transform="matrix(1,0,0,-1,378.936,619.268)"
       style="font-style:italic;font-variant:normal;font-weight:normal;font-stretch:normal;font-size:10px;font-family:Times;-inkscape-font-specification:Times-Italic;writing-mode:lr-tb;fill:#000000;fill-opacity:1;fill-rule:nonzero;stroke:none"
       id="text3675"><tspan
         x="0 4.4400001 8.3299999 12.77"
         y="0"
         sodipodi:role="line"
         id="tspan3677">eset</tspan></text>
<text
       transform="matrix(1,0,0,-1,358.987,667.905)"
       style="font-style:italic;font-variant:normal;font-weight:normal;font-stretch:normal;font-size:10px;font-family:Times;-inkscape-font-specification:Times-Italic;writing-mode:lr-tb;fill:#000000;fill-opacity:1;fill-rule:nonzero;stroke:none"
       id="text3679"><tspan
         x="0 5 10 15 20 22.780001"
         y="0"
         sodipodi:role="line"
         id="tspan3681">update</tspan></text>
<text
       transform="matrix(1,0,0,-1,227.572,662.047)"
       style="font-style:italic;font-variant:normal;font-weight:bold;font-stretch:normal;font-size:16.17399979px;font-family:Times;-inkscape-font-specification:Times-BoldItalic;writing-mode:lr-tb;fill:#000000;fill-opacity:1;fill-rule:nonzero;stroke:none"
       id="text3683"><tspan
         x="0"
         y="0"
         id="tspan3685">g</tspan></text>
<text
       transform="matrix(1,0,0,-1,198.044,636.663)"
       style="font-style:italic;font-variant:normal;font-weight:bold;font-stretch:normal;font-size:16.17399979px;font-family:Times;-inkscape-font-specification:Times-BoldItalic;writing-mode:lr-tb;fill:#000000;fill-opacity:1;fill-rule:nonzero;stroke:none"
       id="text3687"><tspan
         x="0"
         y="0"
         id="tspan3689">h</tspan></text>
<text
       transform="matrix(1,0,0,-1,207.03674,636.663)"
       style="font-variant:normal;font-weight:normal;font-stretch:normal;font-size:10px;font-family:Times;-inkscape-font-specification:Times-Roman;writing-mode:lr-tb;fill:#000000;fill-opacity:1;fill-rule:nonzero;stroke:none"
       id="text3691"><tspan
         x="0 2.78 6.1100001"
         y="0"
         sodipodi:role="line"
         id="tspan3693">t-1</tspan></text>
<text
       transform="matrix(1,0,0,-1,423.551,627.181)"
       style="font-style:italic;font-variant:normal;font-weight:bold;font-stretch:normal;font-size:16.17399979px;font-family:Times;-inkscape-font-specification:Times-BoldItalic;writing-mode:lr-tb;fill:#000000;fill-opacity:1;fill-rule:nonzero;stroke:none"
       id="text3695"><tspan
         x="0"
         y="0"
         id="tspan3697">g</tspan></text>
<text
       transform="matrix(1,0,0,-1,366.048,634.434)"
       style="font-style:italic;font-variant:normal;font-weight:bold;font-stretch:normal;font-size:16.17399979px;font-family:Times;-inkscape-font-specification:Times-BoldItalic;writing-mode:lr-tb;fill:#000000;fill-opacity:1;fill-rule:nonzero;stroke:none"
       id="text3699"><tspan
         x="0"
         y="0"
         id="tspan3701">h</tspan></text>
<text
       transform="matrix(1,0,0,-1,375.04074,634.434)"
       style="font-variant:normal;font-weight:normal;font-stretch:normal;font-size:10px;font-family:Times;-inkscape-font-specification:Times-Roman;writing-mode:lr-tb;fill:#000000;fill-opacity:1;fill-rule:nonzero;stroke:none"
       id="text3703"><tspan
         x="0 2.78 6.1100001"
         y="0"
         sodipodi:role="line"
         id="tspan3705">t-1</tspan></text>
</g></svg>