<?xml version="1.0" encoding="UTF-8" standalone="no"?>
<!-- Created with Inkscape (http://www.inkscape.org/) -->

<svg
   xmlns:dc="http://purl.org/dc/elements/1.1/"
   xmlns:cc="http://creativecommons.org/ns#"
   xmlns:rdf="http://www.w3.org/1999/02/22-rdf-syntax-ns#"
   xmlns:svg="http://www.w3.org/2000/svg"
   xmlns="http://www.w3.org/2000/svg"
   xmlns:sodipodi="http://sodipodi.sourceforge.net/DTD/sodipodi-0.dtd"
   xmlns:inkscape="http://www.inkscape.org/namespaces/inkscape"
   id="svg2"
   version="1.1"
   inkscape:version="0.91 r13725"
   xml:space="preserve"
   width="162.16875"
   height="211.86626"
   viewBox="0 0 162.16875 211.86626"
   sodipodi:docname="2015Bahdanau_Fig1.svg"><metadata
     id="metadata8"><rdf:RDF><cc:Work
         rdf:about=""><dc:format>image/svg+xml</dc:format><dc:type
           rdf:resource="http://purl.org/dc/dcmitype/StillImage" /><dc:title></dc:title></cc:Work></rdf:RDF></metadata><defs
     id="defs6"><clipPath
       clipPathUnits="userSpaceOnUse"
       id="clipPath16"><path
         d="m -4.60098,-1.19238 138.00098,0 0,190.41438 -138.00098,0 0,-190.41438 z"
         id="path18"
         inkscape:connector-curvature="0" /></clipPath></defs><sodipodi:namedview
     pagecolor="#ffffff"
     bordercolor="#666666"
     borderopacity="1"
     objecttolerance="10"
     gridtolerance="10"
     guidetolerance="10"
     inkscape:pageopacity="0"
     inkscape:pageshadow="2"
     inkscape:window-width="640"
     inkscape:window-height="480"
     id="namedview4"
     showgrid="false"
     inkscape:zoom="1.1139103"
     inkscape:cx="81.084373"
     inkscape:cy="105.93313"
     inkscape:window-x="0"
     inkscape:window-y="23"
     inkscape:window-maximized="0"
     inkscape:current-layer="g10" /><g
     id="g10"
     inkscape:groupmode="layer"
     inkscape:label="2015Bahdanau_Fig1"
     transform="matrix(1.25,0,0,-1.25,-473.4275,558.4225)"><g
       id="g12"
       transform="matrix(0.86217,0,0,0.86217,387.181,283.676)"><g
         id="g14" /><g
         id="g20"><g
           clip-path="url(#clipPath16)"
           id="g22"><g
             id="g24"><g
               transform="matrix(1,0,0,-1,0,180.29007)"
               id="g26"><path
                 d="m 4.199,102.902 16,0 0,27.199 -16,0 0,-27.199 z"
                 style="fill:none;stroke:#000000;stroke-width:0.46599999;stroke-linecap:butt;stroke-linejoin:miter;stroke-miterlimit:4;stroke-dasharray:none;stroke-opacity:1"
                 id="path28"
                 inkscape:connector-curvature="0" /></g><g
               transform="matrix(1,0,0,-1,0,180.29007)"
               id="g30"><path
                 d="m 33,102.902 16,0 0,27.199 -16,0 0,-27.199 z"
                 style="fill:none;stroke:#000000;stroke-width:0.46599999;stroke-linecap:butt;stroke-linejoin:miter;stroke-miterlimit:4;stroke-dasharray:none;stroke-opacity:1"
                 id="path32"
                 inkscape:connector-curvature="0" /></g><g
               transform="matrix(1,0,0,-1,0,180.29007)"
               id="g34"><path
                 d="m 61.801,102.902 16,0 0,27.199 -16,0 0,-27.199 z"
                 style="fill:none;stroke:#000000;stroke-width:0.46599999;stroke-linecap:butt;stroke-linejoin:miter;stroke-miterlimit:4;stroke-dasharray:none;stroke-opacity:1"
                 id="path36"
                 inkscape:connector-curvature="0" /></g><g
               transform="matrix(1,0,0,-1,0,180.29007)"
               id="g38"><path
                 d="m 113,102.902 16,0 0,27.199 -16,0 0,-27.199 z"
                 style="fill:none;stroke:#000000;stroke-width:0.46599999;stroke-linecap:butt;stroke-linejoin:miter;stroke-miterlimit:4;stroke-dasharray:none;stroke-opacity:1"
                 id="path40"
                 inkscape:connector-curvature="0" /></g><g
               transform="matrix(1,0,0,-1,20.199,65.38807)"
               id="g42"><path
                 d="M 0,0 12,0"
                 style="fill:none;stroke:#000000;stroke-width:0.80000001;stroke-linecap:butt;stroke-linejoin:miter;stroke-miterlimit:4;stroke-dasharray:none;stroke-opacity:1"
                 id="path44"
                 inkscape:connector-curvature="0" /></g><g
               transform="matrix(-1,0,0,1,29,65.38807)"
               id="g46"><path
                 d="M 0,0 1.602,-1.602 -4,0 1.602,1.601 0,0 Z"
                 style="fill:#000000;fill-opacity:1;fill-rule:evenodd;stroke:#000000;stroke-width:0.40000001;stroke-linecap:butt;stroke-linejoin:miter;stroke-miterlimit:4;stroke-dasharray:none;stroke-opacity:1"
                 id="path48"
                 inkscape:connector-curvature="0" /></g><g
               transform="matrix(1,0,0,-1,49,65.38807)"
               id="g50"><path
                 d="M 0,0 12,0"
                 style="fill:none;stroke:#000000;stroke-width:0.80000001;stroke-linecap:butt;stroke-linejoin:miter;stroke-miterlimit:4;stroke-dasharray:none;stroke-opacity:1"
                 id="path52"
                 inkscape:connector-curvature="0" /></g><g
               transform="matrix(-1,0,0,1,57.801,65.38807)"
               id="g54"><path
                 d="M 0,0 1.602,-1.602 -4,0 1.602,1.601 0,0 Z"
                 style="fill:#000000;fill-opacity:1;fill-rule:evenodd;stroke:#000000;stroke-width:0.40000001;stroke-linecap:butt;stroke-linejoin:miter;stroke-miterlimit:4;stroke-dasharray:none;stroke-opacity:1"
                 id="path56"
                 inkscape:connector-curvature="0" /></g><g
               transform="matrix(1,0,0,-1,77.801,65.38807)"
               id="g58"><path
                 d="M 0,0 12,0"
                 style="fill:none;stroke:#000000;stroke-width:0.80000001;stroke-linecap:butt;stroke-linejoin:miter;stroke-miterlimit:4;stroke-dasharray:none;stroke-opacity:1"
                 id="path60"
                 inkscape:connector-curvature="0" /></g><g
               transform="matrix(-1,0,0,1,86.602,65.38807)"
               id="g62"><path
                 d="M 0,0 1.602,-1.602 -4,0 1.602,1.601 0,0 Z"
                 style="fill:#000000;fill-opacity:1;fill-rule:evenodd;stroke:#000000;stroke-width:0.40000001;stroke-linecap:butt;stroke-linejoin:miter;stroke-miterlimit:4;stroke-dasharray:none;stroke-opacity:1"
                 id="path64"
                 inkscape:connector-curvature="0" /></g><g
               transform="matrix(1,0,0,-1,100.199,65.38807)"
               id="g66"><path
                 d="M 0,0 12,0"
                 style="fill:none;stroke:#000000;stroke-width:0.80000001;stroke-linecap:butt;stroke-linejoin:miter;stroke-miterlimit:4;stroke-dasharray:none;stroke-opacity:1"
                 id="path68"
                 inkscape:connector-curvature="0" /></g><g
               transform="matrix(-1,0,0,1,109,65.38807)"
               id="g70"><path
                 d="M 0,0 1.602,-1.602 -4,0 1.602,1.601 0,0 Z"
                 style="fill:#000000;fill-opacity:1;fill-rule:evenodd;stroke:#000000;stroke-width:0.40000001;stroke-linecap:butt;stroke-linejoin:miter;stroke-miterlimit:4;stroke-dasharray:none;stroke-opacity:1"
                 id="path72"
                 inkscape:connector-curvature="0" /></g><g
               transform="matrix(1,0,0,-1,0,180.29007)"
               id="g74"><path
                 d="m 4.199,134.902 16,0 0,27.199 -16,0 0,-27.199 z"
                 style="fill:none;stroke:#000000;stroke-width:0.46599999;stroke-linecap:butt;stroke-linejoin:miter;stroke-miterlimit:4;stroke-dasharray:none;stroke-opacity:1"
                 id="path76"
                 inkscape:connector-curvature="0" /></g><g
               transform="matrix(1,0,0,-1,0,180.29007)"
               id="g78"><path
                 d="m 33,134.902 16,0 0,27.199 -16,0 0,-27.199 z"
                 style="fill:none;stroke:#000000;stroke-width:0.46599999;stroke-linecap:butt;stroke-linejoin:miter;stroke-miterlimit:4;stroke-dasharray:none;stroke-opacity:1"
                 id="path80"
                 inkscape:connector-curvature="0" /></g><g
               transform="matrix(1,0,0,-1,0,180.29007)"
               id="g82"><path
                 d="m 61.801,134.902 16,0 0,27.199 -16,0 0,-27.199 z"
                 style="fill:none;stroke:#000000;stroke-width:0.46599999;stroke-linecap:butt;stroke-linejoin:miter;stroke-miterlimit:4;stroke-dasharray:none;stroke-opacity:1"
                 id="path84"
                 inkscape:connector-curvature="0" /></g><g
               transform="matrix(1,0,0,-1,0,180.29007)"
               id="g86"><path
                 d="m 113,134.902 16,0 0,27.199 -16,0 0,-27.199 z"
                 style="fill:none;stroke:#000000;stroke-width:0.46599999;stroke-linecap:butt;stroke-linejoin:miter;stroke-miterlimit:4;stroke-dasharray:none;stroke-opacity:1"
                 id="path88"
                 inkscape:connector-curvature="0" /></g><g
               transform="matrix(1,0,0,-1,32.801,33.38807)"
               id="g90"><path
                 d="M 0,0 -12,0"
                 style="fill:none;stroke:#000000;stroke-width:0.80000001;stroke-linecap:butt;stroke-linejoin:miter;stroke-miterlimit:4;stroke-dasharray:none;stroke-opacity:1"
                 id="path92"
                 inkscape:connector-curvature="0" /></g><g
               transform="matrix(1,0,0,-1,24,33.38807)"
               id="g94"><path
                 d="M 0,0 1.602,-1.601 -4,0 1.602,1.602 0,0 Z"
                 style="fill:#000000;fill-opacity:1;fill-rule:evenodd;stroke:#000000;stroke-width:0.40000001;stroke-linecap:butt;stroke-linejoin:miter;stroke-miterlimit:4;stroke-dasharray:none;stroke-opacity:1"
                 id="path96"
                 inkscape:connector-curvature="0" /></g><g
               transform="matrix(1,0,0,-1,61.602,33.38807)"
               id="g98"><path
                 d="M 0,0 -12,0"
                 style="fill:none;stroke:#000000;stroke-width:0.80000001;stroke-linecap:butt;stroke-linejoin:miter;stroke-miterlimit:4;stroke-dasharray:none;stroke-opacity:1"
                 id="path100"
                 inkscape:connector-curvature="0" /></g><g
               transform="matrix(1,0,0,-1,52.801,33.38807)"
               id="g102"><path
                 d="M 0,0 1.597,-1.601 -4,0 1.597,1.602 0,0 Z"
                 style="fill:#000000;fill-opacity:1;fill-rule:evenodd;stroke:#000000;stroke-width:0.40000001;stroke-linecap:butt;stroke-linejoin:miter;stroke-miterlimit:4;stroke-dasharray:none;stroke-opacity:1"
                 id="path104"
                 inkscape:connector-curvature="0" /></g><g
               transform="matrix(1,0,0,-1,90.398,33.38807)"
               id="g106"><path
                 d="M 0,0 -12,0"
                 style="fill:none;stroke:#000000;stroke-width:0.80000001;stroke-linecap:butt;stroke-linejoin:miter;stroke-miterlimit:4;stroke-dasharray:none;stroke-opacity:1"
                 id="path108"
                 inkscape:connector-curvature="0" /></g><g
               transform="matrix(1,0,0,-1,81.602,33.38807)"
               id="g110"><path
                 d="M 0,0 1.597,-1.601 -4,0 1.597,1.602 0,0 Z"
                 style="fill:#000000;fill-opacity:1;fill-rule:evenodd;stroke:#000000;stroke-width:0.40000001;stroke-linecap:butt;stroke-linejoin:miter;stroke-miterlimit:4;stroke-dasharray:none;stroke-opacity:1"
                 id="path112"
                 inkscape:connector-curvature="0" /></g><g
               transform="matrix(1,0,0,-1,112.801,33.38807)"
               id="g114"><path
                 d="M 0,0 -12,0"
                 style="fill:none;stroke:#000000;stroke-width:0.80000001;stroke-linecap:butt;stroke-linejoin:miter;stroke-miterlimit:4;stroke-dasharray:none;stroke-opacity:1"
                 id="path116"
                 inkscape:connector-curvature="0" /></g><g
               transform="matrix(1,0,0,-1,104,33.38807)"
               id="g118"><path
                 d="M 0,0 1.602,-1.601 -4,0 1.602,1.602 0,0 Z"
                 style="fill:#000000;fill-opacity:1;fill-rule:evenodd;stroke:#000000;stroke-width:0.40000001;stroke-linecap:butt;stroke-linejoin:miter;stroke-miterlimit:4;stroke-dasharray:none;stroke-opacity:1"
                 id="path120"
                 inkscape:connector-curvature="0" /></g><text
               transform="matrix(1,0,0,-1,6.781,5.116)"
               style="font-style:italic;font-variant:normal;font-weight:bold;font-stretch:normal;font-size:14.08399963px;font-family:'Times New Roman';-inkscape-font-specification:TimesNewRomanPS-BoldItalicMT;writing-mode:lr-tb;fill:#000000;fill-opacity:1;fill-rule:nonzero;stroke:none"
               id="text122"><tspan
                 x="0"
                 y="0"
                 id="tspan124">x</tspan></text>
<text
               transform="matrix(1,0,0,-1,13.426,1.267)"
               style="font-style:italic;font-variant:normal;font-weight:normal;font-stretch:normal;font-size:8.01099968px;font-family:'Times New Roman';-inkscape-font-specification:TimesNewRomanPS-ItalicMT;writing-mode:lr-tb;fill:#000000;fill-opacity:1;fill-rule:nonzero;stroke:none"
               id="text126"><tspan
                 x="0"
                 y="0"
                 id="tspan128">1</tspan></text>
<text
               transform="matrix(1,0,0,-1,35.581,5.116)"
               style="font-style:italic;font-variant:normal;font-weight:bold;font-stretch:normal;font-size:14.08399963px;font-family:'Times New Roman';-inkscape-font-specification:TimesNewRomanPS-BoldItalicMT;writing-mode:lr-tb;fill:#000000;fill-opacity:1;fill-rule:nonzero;stroke:none"
               id="text130"><tspan
                 x="0"
                 y="0"
                 id="tspan132">x</tspan></text>
<text
               transform="matrix(1,0,0,-1,42.226,1.267)"
               style="font-style:italic;font-variant:normal;font-weight:normal;font-stretch:normal;font-size:8.01099968px;font-family:'Times New Roman';-inkscape-font-specification:TimesNewRomanPS-ItalicMT;writing-mode:lr-tb;fill:#000000;fill-opacity:1;fill-rule:nonzero;stroke:none"
               id="text134"><tspan
                 x="0"
                 y="0"
                 id="tspan136">2</tspan></text>
<text
               transform="matrix(1,0,0,-1,64.381,5.116)"
               style="font-style:italic;font-variant:normal;font-weight:bold;font-stretch:normal;font-size:14.08399963px;font-family:'Times New Roman';-inkscape-font-specification:TimesNewRomanPS-BoldItalicMT;writing-mode:lr-tb;fill:#000000;fill-opacity:1;fill-rule:nonzero;stroke:none"
               id="text138"><tspan
                 x="0"
                 y="0"
                 id="tspan140">x</tspan></text>
<text
               transform="matrix(1,0,0,-1,71.026,1.267)"
               style="font-style:italic;font-variant:normal;font-weight:normal;font-stretch:normal;font-size:8.01099968px;font-family:'Times New Roman';-inkscape-font-specification:TimesNewRomanPS-ItalicMT;writing-mode:lr-tb;fill:#000000;fill-opacity:1;fill-rule:nonzero;stroke:none"
               id="text142"><tspan
                 x="0"
                 y="0"
                 id="tspan144">3</tspan></text>
<text
               transform="matrix(1,0,0,-1,114.898,5.119)"
               style="font-style:italic;font-variant:normal;font-weight:bold;font-stretch:normal;font-size:14.08399963px;font-family:'Times New Roman';-inkscape-font-specification:TimesNewRomanPS-BoldItalicMT;writing-mode:lr-tb;fill:#000000;fill-opacity:1;fill-rule:nonzero;stroke:none"
               id="text146"><tspan
                 x="0"
                 y="0"
                 id="tspan148">x</tspan></text>
<text
               transform="matrix(1,0,0,-1,121.94,2.556)"
               style="font-style:italic;font-variant:normal;font-weight:bold;font-stretch:normal;font-size:8.01099968px;font-family:'Times New Roman';-inkscape-font-specification:TimesNewRomanPS-BoldItalicMT;writing-mode:lr-tb;fill:#000000;fill-opacity:1;fill-rule:nonzero;stroke:none"
               id="text150"><tspan
                 x="0"
                 y="0"
                 id="tspan152">T</tspan></text>
<g
               transform="matrix(1,0,0,-1,0,180.29007)"
               id="g154"><path
                 d="m 0.199,98.902 24,0 0,68 -24,0 0,-68 z"
                 style="fill:none;stroke:#000000;stroke-width:0.40000001;stroke-linecap:butt;stroke-linejoin:miter;stroke-miterlimit:4;stroke-dasharray:0.8, 0.4;stroke-dashoffset:0;stroke-opacity:1"
                 id="path156"
                 inkscape:connector-curvature="0" /></g><g
               transform="matrix(1,0,0,-1,0,180.29007)"
               id="g158"><path
                 d="m 29,98.902 24,0 0,68 -24,0 0,-68 z"
                 style="fill:none;stroke:#000000;stroke-width:0.40000001;stroke-linecap:butt;stroke-linejoin:miter;stroke-miterlimit:4;stroke-dasharray:0.8, 0.4;stroke-dashoffset:0;stroke-opacity:1"
                 id="path160"
                 inkscape:connector-curvature="0" /></g><g
               transform="matrix(1,0,0,-1,0,180.29007)"
               id="g162"><path
                 d="m 57.801,98.902 24,0 0,68 -24,0 0,-68 z"
                 style="fill:none;stroke:#000000;stroke-width:0.40000001;stroke-linecap:butt;stroke-linejoin:miter;stroke-miterlimit:4;stroke-dasharray:0.8, 0.4;stroke-dashoffset:0;stroke-opacity:1"
                 id="path164"
                 inkscape:connector-curvature="0" /></g><g
               transform="matrix(1,0,0,-1,0,180.29007)"
               id="g166"><path
                 d="m 109,98.902 24,0 0,68 -24,0 0,-68 z"
                 style="fill:none;stroke:#000000;stroke-width:0.40000001;stroke-linecap:butt;stroke-linejoin:miter;stroke-miterlimit:4;stroke-dasharray:0.8, 0.4;stroke-dashoffset:0;stroke-opacity:1"
                 id="path168"
                 inkscape:connector-curvature="0" /></g><g
               transform="matrix(1,0,0,-1,60.199,117.38807)"
               id="g170"><path
                 d="m 0,0 c 0,2.211 -1.789,4 -4,4 -2.207,0 -4,-1.789 -4,-4 0,-2.211 1.793,-4 4,-4 2.211,0 4,1.789 4,4 z"
                 style="fill:none;stroke:#000000;stroke-width:0.40000001;stroke-linecap:butt;stroke-linejoin:miter;stroke-miterlimit:4;stroke-dasharray:none;stroke-opacity:1"
                 id="path172"
                 inkscape:connector-curvature="0" /></g></g><g
             id="g174"><text
               transform="matrix(1,0,0,-1,50.8404,113.3879)"
               style="font-variant:normal;font-weight:normal;font-size:12.71090031px;font-family:'Bitstream Vera Sans';-inkscape-font-specification:BitstreamVeraSans-Roman;writing-mode:lr-tb;fill:#000000;fill-opacity:1;fill-rule:nonzero;stroke:none"
               id="text176"><tspan
                 x="0"
                 y="0"
                 id="tspan178">+</tspan></text>
<g
               transform="matrix(1,0,0,-1,12.199,81.38807)"
               id="g180"><path
                 d="M 0,0 44,-32"
                 style="fill:none;stroke:#000000;stroke-width:0.80000001;stroke-linecap:butt;stroke-linejoin:miter;stroke-miterlimit:4;stroke-dasharray:none;stroke-opacity:1"
                 id="path182"
                 inkscape:connector-curvature="0" /></g><g
               transform="matrix(-1,-0.727273,-0.727273,1,53.613928,111.50498)"
               id="g184"><path
                 d="M 0,0 1.296,-1.292 -3.234,0 1.293,1.296 0,0 Z"
                 style="fill:#000000;fill-opacity:1;fill-rule:evenodd;stroke:#000000;stroke-width:0.324;stroke-linecap:butt;stroke-linejoin:miter;stroke-miterlimit:4;stroke-dasharray:none;stroke-opacity:1"
                 id="path186"
                 inkscape:connector-curvature="0" /></g><g
               transform="matrix(1,0,0,-1,40.199,81.38807)"
               id="g188"><path
                 d="M 0,0 16,-32"
                 style="fill:none;stroke:#000000;stroke-width:0.80000001;stroke-linecap:butt;stroke-linejoin:miter;stroke-miterlimit:4;stroke-dasharray:none;stroke-opacity:1"
                 id="path190"
                 inkscape:connector-curvature="0" /></g><g
               transform="matrix(-0.5,-1,-1,0.5,54.7695,110.52407)"
               id="g192"><path
                 d="M 0,0 1.429,-1.43 -3.578,0 1.431,1.433 0,0 Z"
                 style="fill:#000000;fill-opacity:1;fill-rule:evenodd;stroke:#000000;stroke-width:0.35800001;stroke-linecap:butt;stroke-linejoin:miter;stroke-miterlimit:4;stroke-dasharray:none;stroke-opacity:1"
                 id="path194"
                 inkscape:connector-curvature="0" /></g><g
               transform="matrix(1,0,0,-1,68.199,81.38807)"
               id="g196"><path
                 d="M 0,0 -12,-32"
                 style="fill:none;stroke:#000000;stroke-width:0.80000001;stroke-linecap:butt;stroke-linejoin:miter;stroke-miterlimit:4;stroke-dasharray:none;stroke-opacity:1"
                 id="path198"
                 inkscape:connector-curvature="0" /></g><g
               transform="matrix(0.375,-1,-1,-0.375,57.324625,110.39195)"
               id="g200"><path
                 d="M 0,0 1.499,-1.496 -3.746,0.002 1.497,1.499 0,0 Z"
                 style="fill:#000000;fill-opacity:1;fill-rule:evenodd;stroke:#000000;stroke-width:0.375;stroke-linecap:butt;stroke-linejoin:miter;stroke-miterlimit:4;stroke-dasharray:none;stroke-opacity:1"
                 id="path202"
                 inkscape:connector-curvature="0" /></g><g
               transform="matrix(1,0,0,-1,120.199,81.38807)"
               id="g204"><path
                 d="M 0,0 -64,-32"
                 style="fill:none;stroke:#000000;stroke-width:0.80000001;stroke-linecap:butt;stroke-linejoin:miter;stroke-miterlimit:4;stroke-dasharray:none;stroke-opacity:1"
                 id="path206"
                 inkscape:connector-curvature="0" /></g><g
               transform="matrix(1,-0.5,-0.5,-1,59.0625,111.95757)"
               id="g208"><path
                 d="M 0,0 1.43,-1.43 -3.578,0 1.431,1.432 0,0 Z"
                 style="fill:#000000;fill-opacity:1;fill-rule:evenodd;stroke:#000000;stroke-width:0.35800001;stroke-linecap:butt;stroke-linejoin:miter;stroke-miterlimit:4;stroke-dasharray:none;stroke-opacity:1"
                 id="path210"
                 inkscape:connector-curvature="0" /></g><text
               transform="matrix(1.179779,0,0,-1,20.899,102.886)"
               style="font-variant:normal;font-weight:normal;font-stretch:normal;font-size:7.83300018px;font-family:'Times New Roman';-inkscape-font-specification:TimesNewRomanPSMT;writing-mode:lr-tb;fill:#000000;fill-opacity:1;fill-rule:nonzero;stroke:none"
               id="text212"><tspan
                 x="0"
                 y="0"
                 id="tspan214">α</tspan></text>
<text
               transform="matrix(1,0,0,-1,25.741,101.207)"
               style="font-variant:normal;font-weight:normal;font-stretch:normal;font-size:5.88899994px;font-family:'Times New Roman';-inkscape-font-specification:TimesNewRomanPSMT;writing-mode:lr-tb;fill:#000000;fill-opacity:1;fill-rule:nonzero;stroke:none"
               id="text216"><tspan
                 x="0 1.6371419 3.1093919"
                 y="0"
                 sodipodi:role="line"
                 id="tspan218">t,1</tspan></text>
<text
               transform="matrix(1.179779,0,0,-1,29.669,90.339)"
               style="font-variant:normal;font-weight:normal;font-stretch:normal;font-size:7.44099998px;font-family:'Times New Roman';-inkscape-font-specification:TimesNewRomanPSMT;writing-mode:lr-tb;fill:#000000;fill-opacity:1;fill-rule:nonzero;stroke:none"
               id="text220"><tspan
                 x="0"
                 y="0"
                 id="tspan222">α</tspan></text>
<text
               transform="matrix(1,0,0,-1,34.268,88.744)"
               style="font-variant:normal;font-weight:normal;font-stretch:normal;font-size:5.59399986px;font-family:'Times New Roman';-inkscape-font-specification:TimesNewRomanPSMT;writing-mode:lr-tb;fill:#000000;fill-opacity:1;fill-rule:nonzero;stroke:none"
               id="text224"><tspan
                 x="0 1.555132 2.9536321"
                 y="0"
                 sodipodi:role="line"
                 id="tspan226">t,2</tspan></text>
<text
               transform="matrix(1.179779,0,0,-1,67.114,88.739)"
               style="font-variant:normal;font-weight:normal;font-stretch:normal;font-size:7.44099998px;font-family:'Times New Roman';-inkscape-font-specification:TimesNewRomanPSMT;writing-mode:lr-tb;fill:#000000;fill-opacity:1;fill-rule:nonzero;stroke:none"
               id="text228"><tspan
                 x="0"
                 y="0"
                 id="tspan230">α</tspan></text>
<text
               transform="matrix(1,0,0,-1,71.713,87.144)"
               style="font-variant:normal;font-weight:normal;font-stretch:normal;font-size:5.59399986px;font-family:'Times New Roman';-inkscape-font-specification:TimesNewRomanPSMT;writing-mode:lr-tb;fill:#000000;fill-opacity:1;fill-rule:nonzero;stroke:none"
               id="text232"><tspan
                 x="0 1.555132 2.9536321"
                 y="0"
                 sodipodi:role="line"
                 id="tspan234">t,3</tspan></text>
<text
               transform="matrix(1.179779,0,0,-1,84.881,100.945)"
               style="font-variant:normal;font-weight:normal;font-stretch:normal;font-size:7.44099998px;font-family:'Times New Roman';-inkscape-font-specification:TimesNewRomanPSMT;writing-mode:lr-tb;fill:#000000;fill-opacity:1;fill-rule:nonzero;stroke:none"
               id="text236"><tspan
                 x="0"
                 y="0"
                 id="tspan238">α</tspan></text>
<text
               transform="matrix(1,0,0,-1,89.48,99.35)"
               style="font-variant:normal;font-weight:normal;font-stretch:normal;font-size:5.59399986px;font-family:'Times New Roman';-inkscape-font-specification:TimesNewRomanPSMT;writing-mode:lr-tb;fill:#000000;fill-opacity:1;fill-rule:nonzero;stroke:none"
               id="text240"><tspan
                 x="0 1.555132 2.9536321"
                 y="0"
                 sodipodi:role="line"
                 id="tspan242">t,T</tspan></text>
<g
               transform="matrix(1,0,0,-1,0,180.29007)"
               id="g244"><path
                 d="m 36.199,14.902 16,0 0,27.199 -16,0 0,-27.199 z"
                 style="fill:none;stroke:#000000;stroke-width:0.46599999;stroke-linecap:butt;stroke-linejoin:miter;stroke-miterlimit:4;stroke-dasharray:none;stroke-opacity:1"
                 id="path246"
                 inkscape:connector-curvature="0" /></g><g
               transform="matrix(1,0,0,-1,23.398,153.38807)"
               id="g248"><path
                 d="M 0,0 12,0"
                 style="fill:none;stroke:#000000;stroke-width:0.80000001;stroke-linecap:butt;stroke-linejoin:miter;stroke-miterlimit:4;stroke-dasharray:none;stroke-opacity:1"
                 id="path250"
                 inkscape:connector-curvature="0" /></g><g
               transform="matrix(-1,0,0,1,32.199,153.38807)"
               id="g252"><path
                 d="M 0,0 1.597,-1.602 -4,0 1.597,1.601 0,0 Z"
                 style="fill:#000000;fill-opacity:1;fill-rule:evenodd;stroke:#000000;stroke-width:0.40000001;stroke-linecap:butt;stroke-linejoin:miter;stroke-miterlimit:4;stroke-dasharray:none;stroke-opacity:1"
                 id="path254"
                 inkscape:connector-curvature="0" /></g><g
               transform="matrix(1,0,0,-1,0,180.29007)"
               id="g256"><path
                 d="m 76.199,14.902 16,0 0,27.199 -16,0 0,-27.199 z"
                 style="fill:none;stroke:#000000;stroke-width:0.46599999;stroke-linecap:butt;stroke-linejoin:miter;stroke-miterlimit:4;stroke-dasharray:none;stroke-opacity:1"
                 id="path258"
                 inkscape:connector-curvature="0" /></g><text
               transform="matrix(1,0,0,-1,34.95,174.772)"
               style="font-variant:normal;font-weight:bold;font-stretch:normal;font-size:14.08399963px;font-family:'Times New Roman';-inkscape-font-specification:TimesNewRomanPS-BoldMT;writing-mode:lr-tb;fill:#000000;fill-opacity:1;fill-rule:nonzero;stroke:none"
               id="text260"><tspan
                 x="0"
                 y="0"
                 id="tspan262">y</tspan></text>
<text
               transform="matrix(1,0,0,-1,41.992,172.209)"
               style="font-variant:normal;font-weight:normal;font-stretch:normal;font-size:8.01099968px;font-family:'Times New Roman';-inkscape-font-specification:TimesNewRomanPSMT;writing-mode:lr-tb;fill:#000000;fill-opacity:1;fill-rule:nonzero;stroke:none"
               id="text264"><tspan
                 x="0 2.2270579 4.894721"
                 y="0"
                 sodipodi:role="line"
                 id="tspan266">t-1</tspan></text>
<text
               transform="matrix(1,0,0,-1,77.335,174.772)"
               style="font-variant:normal;font-weight:bold;font-stretch:normal;font-size:14.08399963px;font-family:'Times New Roman';-inkscape-font-specification:TimesNewRomanPS-BoldMT;writing-mode:lr-tb;fill:#000000;fill-opacity:1;fill-rule:nonzero;stroke:none"
               id="text268"><tspan
                 x="0"
                 y="0"
                 id="tspan270">y</tspan></text>
<text
               transform="matrix(1,0,0,-1,84.377,172.209)"
               style="font-variant:normal;font-weight:normal;font-stretch:normal;font-size:8.01099968px;font-family:'Times New Roman';-inkscape-font-specification:TimesNewRomanPSMT;writing-mode:lr-tb;fill:#000000;fill-opacity:1;fill-rule:nonzero;stroke:none"
               id="text272"><tspan
                 x="0"
                 y="0"
                 id="tspan274">t</tspan></text>
<g
               transform="matrix(1,0,0,-1,52.199,153.38807)"
               id="g276"><path
                 d="M 0,0 24,0"
                 style="fill:none;stroke:#000000;stroke-width:0.80000001;stroke-linecap:butt;stroke-linejoin:miter;stroke-miterlimit:4;stroke-dasharray:none;stroke-opacity:1"
                 id="path278"
                 inkscape:connector-curvature="0" /></g><g
               transform="matrix(-1,0,0,1,73,153.38807)"
               id="g280"><path
                 d="M 0,0 1.602,-1.602 -4,0 1.602,1.601 0,0 Z"
                 style="fill:#000000;fill-opacity:1;fill-rule:evenodd;stroke:#000000;stroke-width:0.40000001;stroke-linecap:butt;stroke-linejoin:miter;stroke-miterlimit:4;stroke-dasharray:none;stroke-opacity:1"
                 id="path282"
                 inkscape:connector-curvature="0" /></g><g
               transform="matrix(1,0,0,-1,56.199,121.38807)"
               id="g284"><path
                 d="m 0,0 c 0,0 0.375,-14.25 4,-20 3.555,-5.64 16,-12 16,-12"
                 style="fill:none;stroke:#000000;stroke-width:0.80000001;stroke-linecap:butt;stroke-linejoin:miter;stroke-miterlimit:4;stroke-dasharray:none;stroke-opacity:1"
                 id="path286"
                 inkscape:connector-curvature="0" /></g><g
               transform="matrix(-1,-0.511023,-0.511023,1,73.351,151.93102)"
               id="g288"><path
                 d="M 0,0 1.426,-1.424 -3.563,-0.001 1.423,1.426 0,0 Z"
                 style="fill:#000000;fill-opacity:1;fill-rule:evenodd;stroke:#000000;stroke-width:0.35600001;stroke-linecap:butt;stroke-linejoin:miter;stroke-miterlimit:4;stroke-dasharray:none;stroke-opacity:1"
                 id="path290"
                 inkscape:connector-curvature="0" /></g><g
               transform="matrix(1,0,0,-1,92.199,153.38807)"
               id="g292"><path
                 d="M 0,0 12,0"
                 style="fill:none;stroke:#000000;stroke-width:0.80000001;stroke-linecap:butt;stroke-linejoin:miter;stroke-miterlimit:4;stroke-dasharray:none;stroke-opacity:1"
                 id="path294"
                 inkscape:connector-curvature="0" /></g><g
               transform="matrix(-1,0,0,1,101,153.38807)"
               id="g296"><path
                 d="M 0,0 1.602,-1.602 -4,0 1.602,1.601 0,0 Z"
                 style="fill:#000000;fill-opacity:1;fill-rule:evenodd;stroke:#000000;stroke-width:0.40000001;stroke-linecap:butt;stroke-linejoin:miter;stroke-miterlimit:4;stroke-dasharray:none;stroke-opacity:1"
                 id="path298"
                 inkscape:connector-curvature="0" /></g><text
               transform="matrix(1,0,0,-1,7.869,29.262)"
               style="font-variant:normal;font-weight:normal;font-stretch:normal;font-size:10.35299969px;font-family:'Times New Roman';-inkscape-font-specification:TimesNewRomanPSMT;writing-mode:lr-tb;fill:#000000;fill-opacity:1;fill-rule:nonzero;stroke:none"
               id="text300"><tspan
                 x="0"
                 y="0"
                 id="tspan302">h</tspan></text>
<text
               transform="matrix(1,0,0,-1,13.045,27.378)"
               style="font-variant:normal;font-weight:normal;font-stretch:normal;font-size:5.88899994px;font-family:'Times New Roman';-inkscape-font-specification:TimesNewRomanPSMT;writing-mode:lr-tb;fill:#000000;fill-opacity:1;fill-rule:nonzero;stroke:none"
               id="text304"><tspan
                 x="0"
                 y="0"
                 id="tspan306">1</tspan></text>
<g
               transform="matrix(1,0,0,-1,8.199,38.18807)"
               id="g308"><path
                 d="M 0,0 8,0"
                 style="fill:none;stroke:#000000;stroke-width:0.40000001;stroke-linecap:butt;stroke-linejoin:miter;stroke-miterlimit:4;stroke-dasharray:none;stroke-opacity:1"
                 id="path310"
                 inkscape:connector-curvature="0" /></g><g
               transform="matrix(1,0,0,-1,9.801,38.18807)"
               id="g312"><path
                 d="M 0,0 0.801,-0.801 -2,0 0.801,0.8 0,0 Z"
                 style="fill:#000000;fill-opacity:1;fill-rule:evenodd;stroke:#000000;stroke-width:0.2;stroke-linecap:butt;stroke-linejoin:miter;stroke-miterlimit:4;stroke-dasharray:none;stroke-opacity:1"
                 id="path314"
                 inkscape:connector-curvature="0" /></g><text
               transform="matrix(1,0,0,-1,36.829,29.262)"
               style="font-variant:normal;font-weight:normal;font-stretch:normal;font-size:10.35299969px;font-family:'Times New Roman';-inkscape-font-specification:TimesNewRomanPSMT;writing-mode:lr-tb;fill:#000000;fill-opacity:1;fill-rule:nonzero;stroke:none"
               id="text316"><tspan
                 x="0"
                 y="0"
                 id="tspan318">h</tspan></text>
<text
               transform="matrix(1,0,0,-1,42.005,27.378)"
               style="font-variant:normal;font-weight:normal;font-stretch:normal;font-size:5.88899994px;font-family:'Times New Roman';-inkscape-font-specification:TimesNewRomanPSMT;writing-mode:lr-tb;fill:#000000;fill-opacity:1;fill-rule:nonzero;stroke:none"
               id="text320"><tspan
                 x="0"
                 y="0"
                 id="tspan322">2</tspan></text>
<g
               transform="matrix(1,0,0,-1,37,38.18807)"
               id="g324"><path
                 d="M 0,0 8,0"
                 style="fill:none;stroke:#000000;stroke-width:0.40000001;stroke-linecap:butt;stroke-linejoin:miter;stroke-miterlimit:4;stroke-dasharray:none;stroke-opacity:1"
                 id="path326"
                 inkscape:connector-curvature="0" /></g><g
               transform="matrix(1,0,0,-1,38.602,38.18807)"
               id="g328"><path
                 d="M 0,0 0.796,-0.801 -2,0 0.796,0.8 0,0 Z"
                 style="fill:#000000;fill-opacity:1;fill-rule:evenodd;stroke:#000000;stroke-width:0.2;stroke-linecap:butt;stroke-linejoin:miter;stroke-miterlimit:4;stroke-dasharray:none;stroke-opacity:1"
                 id="path330"
                 inkscape:connector-curvature="0" /></g><text
               transform="matrix(1,0,0,-1,65.789,29.262)"
               style="font-variant:normal;font-weight:normal;font-stretch:normal;font-size:10.35299969px;font-family:'Times New Roman';-inkscape-font-specification:TimesNewRomanPSMT;writing-mode:lr-tb;fill:#000000;fill-opacity:1;fill-rule:nonzero;stroke:none"
               id="text332"><tspan
                 x="0"
                 y="0"
                 id="tspan334">h</tspan></text>
<text
               transform="matrix(1,0,0,-1,70.965,27.378)"
               style="font-variant:normal;font-weight:normal;font-stretch:normal;font-size:5.88899994px;font-family:'Times New Roman';-inkscape-font-specification:TimesNewRomanPSMT;writing-mode:lr-tb;fill:#000000;fill-opacity:1;fill-rule:nonzero;stroke:none"
               id="text336"><tspan
                 x="0"
                 y="0"
                 id="tspan338">3</tspan></text>
<g
               transform="matrix(1,0,0,-1,65.801,38.18807)"
               id="g340"><path
                 d="M 0,0 8,0"
                 style="fill:none;stroke:#000000;stroke-width:0.40000001;stroke-linecap:butt;stroke-linejoin:miter;stroke-miterlimit:4;stroke-dasharray:none;stroke-opacity:1"
                 id="path342"
                 inkscape:connector-curvature="0" /></g><g
               transform="matrix(1,0,0,-1,67.398,38.18807)"
               id="g344"><path
                 d="M 0,0 0.801,-0.801 -2,0 0.801,0.8 0,0 Z"
                 style="fill:#000000;fill-opacity:1;fill-rule:evenodd;stroke:#000000;stroke-width:0.2;stroke-linecap:butt;stroke-linejoin:miter;stroke-miterlimit:4;stroke-dasharray:none;stroke-opacity:1"
                 id="path346"
                 inkscape:connector-curvature="0" /></g><text
               transform="matrix(1,0,0,-1,117.136,29.264)"
               style="font-variant:normal;font-weight:normal;font-stretch:normal;font-size:10.35299969px;font-family:'Times New Roman';-inkscape-font-specification:TimesNewRomanPSMT;writing-mode:lr-tb;fill:#000000;fill-opacity:1;fill-rule:nonzero;stroke:none"
               id="text348"><tspan
                 x="0"
                 y="0"
                 id="tspan350">h</tspan></text>
<text
               transform="matrix(1,0,0,-1,122.312,27.38)"
               style="font-variant:normal;font-weight:normal;font-stretch:normal;font-size:5.88899994px;font-family:'Times New Roman';-inkscape-font-specification:TimesNewRomanPSMT;writing-mode:lr-tb;fill:#000000;fill-opacity:1;fill-rule:nonzero;stroke:none"
               id="text352"><tspan
                 x="0"
                 y="0"
                 id="tspan354">T</tspan></text>
<g
               transform="matrix(1,0,0,-1,117,38.18807)"
               id="g356"><path
                 d="M 0,0 8,0"
                 style="fill:none;stroke:#000000;stroke-width:0.40000001;stroke-linecap:butt;stroke-linejoin:miter;stroke-miterlimit:4;stroke-dasharray:none;stroke-opacity:1"
                 id="path358"
                 inkscape:connector-curvature="0" /></g><g
               transform="matrix(1,0,0,-1,118.602,38.18807)"
               id="g360"><path
                 d="M 0,0 0.796,-0.801 -2,0 0.796,0.8 0,0 Z"
                 style="fill:#000000;fill-opacity:1;fill-rule:evenodd;stroke:#000000;stroke-width:0.2;stroke-linecap:butt;stroke-linejoin:miter;stroke-miterlimit:4;stroke-dasharray:none;stroke-opacity:1"
                 id="path362"
                 inkscape:connector-curvature="0" /></g><text
               transform="matrix(1,0,0,-1,7.869,61.262)"
               style="font-variant:normal;font-weight:normal;font-stretch:normal;font-size:10.35299969px;font-family:'Times New Roman';-inkscape-font-specification:TimesNewRomanPSMT;writing-mode:lr-tb;fill:#000000;fill-opacity:1;fill-rule:nonzero;stroke:none"
               id="text364"><tspan
                 x="0"
                 y="0"
                 id="tspan366">h</tspan></text>
<text
               transform="matrix(1,0,0,-1,13.045,59.378)"
               style="font-variant:normal;font-weight:normal;font-stretch:normal;font-size:5.88899994px;font-family:'Times New Roman';-inkscape-font-specification:TimesNewRomanPSMT;writing-mode:lr-tb;fill:#000000;fill-opacity:1;fill-rule:nonzero;stroke:none"
               id="text368"><tspan
                 x="0"
                 y="0"
                 id="tspan370">1</tspan></text>
<g
               transform="matrix(1,0,0,-1,15.898,70.18807)"
               id="g372"><path
                 d="M 0,0 -8,0"
                 style="fill:none;stroke:#000000;stroke-width:0.40000001;stroke-linecap:butt;stroke-linejoin:miter;stroke-miterlimit:4;stroke-dasharray:none;stroke-opacity:1"
                 id="path374"
                 inkscape:connector-curvature="0" /></g><g
               transform="matrix(-1,0,0,1,14.301,70.18807)"
               id="g376"><path
                 d="M 0,0 0.801,-0.8 -2,0 0.801,0.801 0,0 Z"
                 style="fill:#000000;fill-opacity:1;fill-rule:evenodd;stroke:#000000;stroke-width:0.2;stroke-linecap:butt;stroke-linejoin:miter;stroke-miterlimit:4;stroke-dasharray:none;stroke-opacity:1"
                 id="path378"
                 inkscape:connector-curvature="0" /></g><text
               transform="matrix(1,0,0,-1,36.829,61.262)"
               style="font-variant:normal;font-weight:normal;font-stretch:normal;font-size:10.35299969px;font-family:'Times New Roman';-inkscape-font-specification:TimesNewRomanPSMT;writing-mode:lr-tb;fill:#000000;fill-opacity:1;fill-rule:nonzero;stroke:none"
               id="text380"><tspan
                 x="0"
                 y="0"
                 id="tspan382">h</tspan></text>
<text
               transform="matrix(1,0,0,-1,42.005,59.378)"
               style="font-variant:normal;font-weight:normal;font-stretch:normal;font-size:5.88899994px;font-family:'Times New Roman';-inkscape-font-specification:TimesNewRomanPSMT;writing-mode:lr-tb;fill:#000000;fill-opacity:1;fill-rule:nonzero;stroke:none"
               id="text384"><tspan
                 x="0"
                 y="0"
                 id="tspan386">2</tspan></text>
<g
               transform="matrix(1,0,0,-1,44.699,70.18807)"
               id="g388"><path
                 d="M 0,0 -8,0"
                 style="fill:none;stroke:#000000;stroke-width:0.40000001;stroke-linecap:butt;stroke-linejoin:miter;stroke-miterlimit:4;stroke-dasharray:none;stroke-opacity:1"
                 id="path390"
                 inkscape:connector-curvature="0" /></g><g
               transform="matrix(-1,0,0,1,43.102,70.18807)"
               id="g392"><path
                 d="M 0,0 0.801,-0.8 -2,0 0.801,0.801 0,0 Z"
                 style="fill:#000000;fill-opacity:1;fill-rule:evenodd;stroke:#000000;stroke-width:0.2;stroke-linecap:butt;stroke-linejoin:miter;stroke-miterlimit:4;stroke-dasharray:none;stroke-opacity:1"
                 id="path394"
                 inkscape:connector-curvature="0" /></g><text
               transform="matrix(1,0,0,-1,65.789,61.262)"
               style="font-variant:normal;font-weight:normal;font-stretch:normal;font-size:10.35299969px;font-family:'Times New Roman';-inkscape-font-specification:TimesNewRomanPSMT;writing-mode:lr-tb;fill:#000000;fill-opacity:1;fill-rule:nonzero;stroke:none"
               id="text396"><tspan
                 x="0"
                 y="0"
                 id="tspan398">h</tspan></text>
<text
               transform="matrix(1,0,0,-1,70.965,59.378)"
               style="font-variant:normal;font-weight:normal;font-stretch:normal;font-size:5.88899994px;font-family:'Times New Roman';-inkscape-font-specification:TimesNewRomanPSMT;writing-mode:lr-tb;fill:#000000;fill-opacity:1;fill-rule:nonzero;stroke:none"
               id="text400"><tspan
                 x="0"
                 y="0"
                 id="tspan402">3</tspan></text>
<g
               transform="matrix(1,0,0,-1,73.5,70.18807)"
               id="g404"><path
                 d="M 0,0 -8,0"
                 style="fill:none;stroke:#000000;stroke-width:0.40000001;stroke-linecap:butt;stroke-linejoin:miter;stroke-miterlimit:4;stroke-dasharray:none;stroke-opacity:1"
                 id="path406"
                 inkscape:connector-curvature="0" /></g><g
               transform="matrix(-1,0,0,1,71.898,70.18807)"
               id="g408"><path
                 d="M 0,0 0.796,-0.8 -2,0 0.796,0.801 0,0 Z"
                 style="fill:#000000;fill-opacity:1;fill-rule:evenodd;stroke:#000000;stroke-width:0.2;stroke-linecap:butt;stroke-linejoin:miter;stroke-miterlimit:4;stroke-dasharray:none;stroke-opacity:1"
                 id="path410"
                 inkscape:connector-curvature="0" /></g><text
               transform="matrix(1,0,0,-1,116.978,61.264)"
               style="font-variant:normal;font-weight:normal;font-stretch:normal;font-size:10.35299969px;font-family:'Times New Roman';-inkscape-font-specification:TimesNewRomanPSMT;writing-mode:lr-tb;fill:#000000;fill-opacity:1;fill-rule:nonzero;stroke:none"
               id="text412"><tspan
                 x="0"
                 y="0"
                 id="tspan414">h</tspan></text>
<text
               transform="matrix(1,0,0,-1,122.154,59.38)"
               style="font-variant:normal;font-weight:normal;font-stretch:normal;font-size:5.88899994px;font-family:'Times New Roman';-inkscape-font-specification:TimesNewRomanPSMT;writing-mode:lr-tb;fill:#000000;fill-opacity:1;fill-rule:nonzero;stroke:none"
               id="text416"><tspan
                 x="0"
                 y="0"
                 id="tspan418">T</tspan></text>
<g
               transform="matrix(1,0,0,-1,124.699,70.18807)"
               id="g420"><path
                 d="M 0,0 -8,0"
                 style="fill:none;stroke:#000000;stroke-width:0.40000001;stroke-linecap:butt;stroke-linejoin:miter;stroke-miterlimit:4;stroke-dasharray:none;stroke-opacity:1"
                 id="path422"
                 inkscape:connector-curvature="0" /></g><g
               transform="matrix(-1,0,0,1,123.102,70.18807)"
               id="g424"><path
                 d="M 0,0 0.801,-0.8 -2,0 0.801,0.801 0,0 Z"
                 style="fill:#000000;fill-opacity:1;fill-rule:evenodd;stroke:#000000;stroke-width:0.2;stroke-linecap:butt;stroke-linejoin:miter;stroke-miterlimit:4;stroke-dasharray:none;stroke-opacity:1"
                 id="path426"
                 inkscape:connector-curvature="0" /></g><g
               transform="matrix(1,0,0,-1,16.199,153.38807)"
               id="g428"><path
                 d="M 0,0 -20,0"
                 style="fill:none;stroke:#000000;stroke-width:0.80000001;stroke-linecap:butt;stroke-linejoin:miter;stroke-miterlimit:4;stroke-dasharray:0.8, 6.4;stroke-dashoffset:0;stroke-opacity:1"
                 id="path430"
                 inkscape:connector-curvature="0" /></g><g
               transform="matrix(1,0,0,-1,126.602,153.38807)"
               id="g432"><path
                 d="M 0,0 -20,0"
                 style="fill:none;stroke:#000000;stroke-width:0.80000001;stroke-linecap:butt;stroke-linejoin:miter;stroke-miterlimit:4;stroke-dasharray:0.8, 6.4;stroke-dashoffset:0;stroke-opacity:1"
                 id="path434"
                 inkscape:connector-curvature="0" /></g><text
               transform="matrix(1,0,0,-1,37,149.619)"
               style="font-style:italic;font-variant:normal;font-weight:bold;font-stretch:normal;font-size:14px;font-family:'Times New Roman';-inkscape-font-specification:TimesNewRomanPS-BoldItalicMT;writing-mode:lr-tb;fill:#000000;fill-opacity:1;fill-rule:nonzero;stroke:none"
               id="text436"><tspan
                 x="0"
                 y="0"
                 id="tspan438">s</tspan></text>
<text
               transform="matrix(1,0,0,-1,42.448,147.071)"
               style="font-style:italic;font-variant:normal;font-weight:normal;font-stretch:normal;font-size:8px;font-family:'Times New Roman';-inkscape-font-specification:TimesNewRomanPS-ItalicMT;writing-mode:lr-tb;fill:#000000;fill-opacity:1;fill-rule:nonzero;stroke:none"
               id="text440"><tspan
                 x="0 2.224 4.888"
                 y="0"
                 sodipodi:role="line"
                 id="tspan442">t-1</tspan></text>
<text
               transform="matrix(1,0,0,-1,80.2,149.619)"
               style="font-style:italic;font-variant:normal;font-weight:bold;font-stretch:normal;font-size:14px;font-family:'Times New Roman';-inkscape-font-specification:TimesNewRomanPS-BoldItalicMT;writing-mode:lr-tb;fill:#000000;fill-opacity:1;fill-rule:nonzero;stroke:none"
               id="text444"><tspan
                 x="0"
                 y="0"
                 id="tspan446">s</tspan></text>
<text
               transform="matrix(1,0,0,-1,85.648,147.071)"
               style="font-style:italic;font-variant:normal;font-weight:normal;font-stretch:normal;font-size:10px;font-family:'Times New Roman';-inkscape-font-specification:TimesNewRomanPS-ItalicMT;writing-mode:lr-tb;fill:#000000;fill-opacity:1;fill-rule:nonzero;stroke:none"
               id="text448"><tspan
                 x="0"
                 y="0"
                 id="tspan450">t</tspan></text>
</g></g></g></g></g></svg>